<svg id="gear" xmlns="http://www.w3.org/2000/svg" width="23.108" height="23" viewBox="0 0 23.108 23">
  <g id="Group_83" data-name="Group 83" transform="translate(6.733 6.742)">
    <g id="Group_82" data-name="Group 82">
      <path id="Path_13" data-name="Path 13" d="M154,150.569a4.816,4.816,0,1,0,4.816,4.816A4.822,4.822,0,0,0,154,150.569Zm0,7.706a2.89,2.89,0,1,1,2.89-2.89A2.893,2.893,0,0,1,154,158.275Z" transform="translate(-149.182 -150.569)" fill="#f84c00"/>
    </g>
  </g>
  <g id="Group_85" data-name="Group 85" transform="translate(0 0)">
    <g id="Group_84" data-name="Group 84">
      <path id="Path_14" data-name="Path 14" d="M22.281,9.876l-2.738-.441,1.638-2.177A.964.964,0,0,0,21.1,6L18.36,3.226a.96.96,0,0,0-1.263-.1L14.86,4.7l-.433-2.7a.963.963,0,0,0-.951-.81H9.623a.963.963,0,0,0-.954.826l-.451,2.73L5.992,3.124a.961.961,0,0,0-1.249.1L2.017,5.936A.963.963,0,0,0,1.927,7.2l1.6,2.234-2.7.385A.963.963,0,0,0,0,10.771v3.853a.959.959,0,0,0,.826.952l2.738.441L1.927,18.193a.963.963,0,0,0,.089,1.261L4.742,22.18A.962.962,0,0,0,6,22.269l2.233-1.6.385,2.7a.963.963,0,0,0,.954.826h3.853a.962.962,0,0,0,.954-.824l.441-2.738L17,22.271a.962.962,0,0,0,1.261-.089l2.726-2.726a.963.963,0,0,0,.089-1.261l-1.621-2.23,2.8-.327a.962.962,0,0,0,.852-.956V10.829A.963.963,0,0,0,22.281,9.876Zm-1.1,3.948-1.966.229a1.891,1.891,0,0,0-1.536,1.192,1.934,1.934,0,0,0,.219,1.932l1.135,1.507L17.49,20.228l-1.514-1.14a1.9,1.9,0,0,0-1.866-.237A1.917,1.917,0,0,0,12.859,20.4l-.266,1.87H10.411l-.267-1.858a1.888,1.888,0,0,0-1.191-1.535,1.935,1.935,0,0,0-1.933.218L5.513,20.228,3.969,18.685l1.14-1.514a1.9,1.9,0,0,0,.237-1.866A1.916,1.916,0,0,0,3.8,14.054l-1.87-.266V11.606l1.859-.267a1.889,1.889,0,0,0,1.535-1.191A1.937,1.937,0,0,0,5.1,8.215L3.97,6.709,5.518,5.165,7.076,6.3a1.985,1.985,0,0,0,3.115-1.312l.267-1.871h2.2l.3,1.857a1.89,1.89,0,0,0,1.192,1.539A1.936,1.936,0,0,0,16.074,6.3l1.5-1.125,1.565,1.585L18,8.281A1.986,1.986,0,0,0,19.313,11.4l1.87.267v2.161Z" transform="translate(0 -1.196)" fill="#f84c00"/>
    </g>
  </g>
</svg>
