<svg id="mouse-clicker" xmlns="http://www.w3.org/2000/svg" width="301.203" height="512" viewBox="0 0 301.203 512">
  <path id="Path_16" data-name="Path 16" d="M150.6,0C67.559,0,0,67.559,0,150.6V361.4C0,444.441,67.559,512,150.6,512s150.6-67.559,150.6-150.6V150.6C301.2,67.559,233.645,0,150.6,0ZM270.484,361.4a119.883,119.883,0,0,1-239.766,0V150.6a119.883,119.883,0,0,1,239.766,0Zm0,0" fill="#fff"/>
  <path id="Path_17" data-name="Path 17" d="M150.605,101.852a15.357,15.357,0,0,0-15.359,15.359v70.7a15.359,15.359,0,0,0,30.719,0v-70.7A15.357,15.357,0,0,0,150.605,101.852Zm0,0" fill="#fff"/>
</svg>
