<svg id="phone-7" xmlns="http://www.w3.org/2000/svg" width="14.494" height="23" viewBox="0 0 14.494 23">
  <g id="Group_54" data-name="Group 54">
    <path id="Path_7" data-name="Path 7" d="M85.452.644v0A2.176,2.176,0,0,0,83.91,0H73.781A2.188,2.188,0,0,0,71.6,2.181V20.816A2.19,2.19,0,0,0,73.781,23H83.913a2.19,2.19,0,0,0,2.181-2.181V2.184A2.176,2.176,0,0,0,85.452.644ZM78.847,21.52h0a.589.589,0,1,1,.589-.589A.589.589,0,0,1,78.847,21.52Zm5.515-3.7a1.426,1.426,0,0,1-1.426,1.426H74.755A1.426,1.426,0,0,1,73.33,17.82V3.932a1.426,1.426,0,0,1,1.426-1.426h8.183a1.426,1.426,0,0,1,1.426,1.426Z" transform="translate(-71.6)" fill="#f84c00"/>
  </g>
</svg>
